<?xml version="1.0" encoding="utf-8" standalone="no"?>
<!DOCTYPE svg PUBLIC "-//W3C//DTD SVG 1.1//EN"
  "http://www.w3.org/Graphics/SVG/1.1/DTD/svg11.dtd">
<svg xmlns:xlink="http://www.w3.org/1999/xlink" width="246.632813pt" height="163.692813pt" viewBox="0 0 246.632813 163.692813" xmlns="http://www.w3.org/2000/svg" version="1.1">
 <metadata>
  <rdf:RDF xmlns:dc="http://purl.org/dc/elements/1.1/" xmlns:cc="http://creativecommons.org/ns#" xmlns:rdf="http://www.w3.org/1999/02/22-rdf-syntax-ns#">
   <cc:Work>
    <dc:type rdf:resource="http://purl.org/dc/dcmitype/StillImage"/>
    <dc:date>2025-11-11T09:52:28.757608</dc:date>
    <dc:format>image/svg+xml</dc:format>
    <dc:creator>
     <cc:Agent>
      <dc:title>Matplotlib v3.5.2, https://matplotlib.org/</dc:title>
     </cc:Agent>
    </dc:creator>
   </cc:Work>
  </rdf:RDF>
 </metadata>
 <defs>
  <style type="text/css">*{stroke-linejoin: round; stroke-linecap: butt}</style>
 </defs>
 <g id="figure_1">
  <g id="patch_1">
   <path d="M 0 163.692813 
L 246.632813 163.692813 
L 246.632813 0 
L 0 0 
z
" style="fill: #ffffff"/>
  </g>
  <g id="axes_1">
   <g id="patch_2">
    <path d="M 44.722813 129.04 
L 239.432813 129.04 
L 239.432813 7.2 
L 44.722813 7.2 
z
" style="fill: #ffffff"/>
   </g>
   <g id="PolyCollection_1">
    <path d="M -110324.36687 12.738182 
L -110324.36687 85.42353 
L -110324.36687 85.42353 
L -110324.36687 85.42353 
L 53.573267 85.42353 
L 86.833598 85.42353 
L 106.289645 85.42353 
L 106.289645 85.42353 
L 120.093929 85.42353 
L 130.801364 85.42353 
L 130.801364 85.42353 
L 139.549976 85.42353 
L 146.946821 85.42353 
L 153.354261 85.42353 
L 183.517742 85.42353 
L 208.029462 85.42353 
L 230.582358 85.42353 
L 230.582358 12.738182 
L 230.582358 12.738182 
L 208.029462 12.738182 
L 183.517742 12.738182 
L 153.354261 12.738182 
L 146.946821 12.738182 
L 139.549976 12.738182 
L 130.801364 12.738182 
L 130.801364 12.738182 
L 120.093929 12.738182 
L 106.289645 12.738182 
L 106.289645 12.738182 
L 86.833598 12.738182 
L 53.573267 12.738182 
L -110324.36687 12.738182 
L -110324.36687 12.738182 
L -110324.36687 12.738182 
z
" clip-path="url(#p201a07aa1d)" style="fill: #1f77b4; fill-opacity: 0.18"/>
   </g>
   <g id="PolyCollection_2">
    <path d="M -110324.36687 68.26529 
L -110324.36687 123.501818 
L -110324.36687 123.501818 
L -110324.36687 123.501818 
L 53.573267 123.501818 
L 86.833598 123.501818 
L 106.289645 123.501818 
L 106.289645 123.501818 
L 120.093929 123.501818 
L 130.801364 123.501818 
L 130.801364 123.501818 
L 139.549976 123.501818 
L 146.946821 123.501818 
L 153.354261 123.501818 
L 183.517742 123.501818 
L 208.029462 123.501818 
L 230.582358 123.501818 
L 230.582358 68.26529 
L 230.582358 68.26529 
L 208.029462 68.26529 
L 183.517742 68.26529 
L 153.354261 68.26529 
L 146.946821 68.26529 
L 139.549976 68.26529 
L 130.801364 68.26529 
L 130.801364 68.26529 
L 120.093929 68.26529 
L 106.289645 68.26529 
L 106.289645 68.26529 
L 86.833598 68.26529 
L 53.573267 68.26529 
L -110324.36687 68.26529 
L -110324.36687 68.26529 
L -110324.36687 68.26529 
z
" clip-path="url(#p201a07aa1d)" style="fill: #ff7f0e; fill-opacity: 0.18"/>
   </g>
   <g id="PolyCollection_3">
    <path d="M -110324.36687 23.907485 
L -110324.36687 88.650765 
L -110324.36687 88.650765 
L -110324.36687 88.650765 
L 53.573267 88.650765 
L 86.833598 88.650765 
L 106.289645 88.650765 
L 106.289645 88.650765 
L 120.093929 88.650765 
L 130.801364 88.650765 
L 130.801364 88.650765 
L 139.549976 88.650765 
L 146.946821 88.650765 
L 153.354261 88.650765 
L 183.517742 88.650765 
L 208.029462 88.650765 
L 230.582358 88.650765 
L 230.582358 23.907485 
L 230.582358 23.907485 
L 208.029462 23.907485 
L 183.517742 23.907485 
L 153.354261 23.907485 
L 146.946821 23.907485 
L 139.549976 23.907485 
L 130.801364 23.907485 
L 130.801364 23.907485 
L 120.093929 23.907485 
L 106.289645 23.907485 
L 106.289645 23.907485 
L 86.833598 23.907485 
L 53.573267 23.907485 
L -110324.36687 23.907485 
L -110324.36687 23.907485 
L -110324.36687 23.907485 
z
" clip-path="url(#p201a07aa1d)" style="fill: #2ca02c; fill-opacity: 0.18"/>
   </g>
   <g id="matplotlib.axis_1">
    <g id="xtick_1">
     <g id="line2d_1">
      <path d="M 53.573267 129.04 
L 53.573267 7.2 
" clip-path="url(#p201a07aa1d)" style="fill: none; stroke-dasharray: 1.11,0.48; stroke-dashoffset: 0; stroke: #b0b0b0; stroke-opacity: 0.4; stroke-width: 0.3"/>
     </g>
     <g id="line2d_2">
      <defs>
       <path id="m8e1980f687" d="M 0 0 
L 0 3.5 
" style="stroke: #000000; stroke-width: 0.8"/>
      </defs>
      <g>
       <use xlink:href="#m8e1980f687" x="53.573267" y="129.04" style="stroke: #000000; stroke-width: 0.8"/>
      </g>
     </g>
     <g id="text_1">
      <!-- 0.1 -->
      <g transform="translate(47.212017 142.11875)scale(0.08 -0.08)">
       <defs>
        <path id="DejaVuSans-30" d="M 2034 4250 
Q 1547 4250 1301 3770 
Q 1056 3291 1056 2328 
Q 1056 1369 1301 889 
Q 1547 409 2034 409 
Q 2525 409 2770 889 
Q 3016 1369 3016 2328 
Q 3016 3291 2770 3770 
Q 2525 4250 2034 4250 
z
M 2034 4750 
Q 2819 4750 3233 4129 
Q 3647 3509 3647 2328 
Q 3647 1150 3233 529 
Q 2819 -91 2034 -91 
Q 1250 -91 836 529 
Q 422 1150 422 2328 
Q 422 3509 836 4129 
Q 1250 4750 2034 4750 
z
" transform="scale(0.015625)"/>
        <path id="DejaVuSans-2e" d="M 684 794 
L 1344 794 
L 1344 0 
L 684 0 
L 684 794 
z
" transform="scale(0.015625)"/>
        <path id="DejaVuSans-31" d="M 794 531 
L 1825 531 
L 1825 4091 
L 703 3866 
L 703 4441 
L 1819 4666 
L 2450 4666 
L 2450 531 
L 3481 531 
L 3481 0 
L 794 0 
L 794 531 
z
" transform="scale(0.015625)"/>
       </defs>
       <use xlink:href="#DejaVuSans-30"/>
       <use xlink:href="#DejaVuSans-2e" x="63.623047"/>
       <use xlink:href="#DejaVuSans-31" x="95.410156"/>
      </g>
     </g>
    </g>
    <g id="xtick_2">
     <g id="line2d_3">
      <path d="M 130.801364 129.04 
L 130.801364 7.2 
" clip-path="url(#p201a07aa1d)" style="fill: none; stroke-dasharray: 1.11,0.48; stroke-dashoffset: 0; stroke: #b0b0b0; stroke-opacity: 0.4; stroke-width: 0.3"/>
     </g>
     <g id="line2d_4">
      <g>
       <use xlink:href="#m8e1980f687" x="130.801364" y="129.04" style="stroke: #000000; stroke-width: 0.8"/>
      </g>
     </g>
     <g id="text_2">
      <!-- 0.5 -->
      <g transform="translate(124.440114 142.11875)scale(0.08 -0.08)">
       <defs>
        <path id="DejaVuSans-35" d="M 691 4666 
L 3169 4666 
L 3169 4134 
L 1269 4134 
L 1269 2991 
Q 1406 3038 1543 3061 
Q 1681 3084 1819 3084 
Q 2600 3084 3056 2656 
Q 3513 2228 3513 1497 
Q 3513 744 3044 326 
Q 2575 -91 1722 -91 
Q 1428 -91 1123 -41 
Q 819 9 494 109 
L 494 744 
Q 775 591 1075 516 
Q 1375 441 1709 441 
Q 2250 441 2565 725 
Q 2881 1009 2881 1497 
Q 2881 1984 2565 2268 
Q 2250 2553 1709 2553 
Q 1456 2553 1204 2497 
Q 953 2441 691 2322 
L 691 4666 
z
" transform="scale(0.015625)"/>
       </defs>
       <use xlink:href="#DejaVuSans-30"/>
       <use xlink:href="#DejaVuSans-2e" x="63.623047"/>
       <use xlink:href="#DejaVuSans-35" x="95.410156"/>
      </g>
     </g>
    </g>
    <g id="xtick_3">
     <g id="line2d_5">
      <path d="M 153.354261 129.04 
L 153.354261 7.2 
" clip-path="url(#p201a07aa1d)" style="fill: none; stroke-dasharray: 1.11,0.48; stroke-dashoffset: 0; stroke: #b0b0b0; stroke-opacity: 0.4; stroke-width: 0.3"/>
     </g>
     <g id="line2d_6">
      <g>
       <use xlink:href="#m8e1980f687" x="153.354261" y="129.04" style="stroke: #000000; stroke-width: 0.8"/>
      </g>
     </g>
     <g id="text_3">
      <!-- 0.8 -->
      <g transform="translate(146.993011 142.11875)scale(0.08 -0.08)">
       <defs>
        <path id="DejaVuSans-38" d="M 2034 2216 
Q 1584 2216 1326 1975 
Q 1069 1734 1069 1313 
Q 1069 891 1326 650 
Q 1584 409 2034 409 
Q 2484 409 2743 651 
Q 3003 894 3003 1313 
Q 3003 1734 2745 1975 
Q 2488 2216 2034 2216 
z
M 1403 2484 
Q 997 2584 770 2862 
Q 544 3141 544 3541 
Q 544 4100 942 4425 
Q 1341 4750 2034 4750 
Q 2731 4750 3128 4425 
Q 3525 4100 3525 3541 
Q 3525 3141 3298 2862 
Q 3072 2584 2669 2484 
Q 3125 2378 3379 2068 
Q 3634 1759 3634 1313 
Q 3634 634 3220 271 
Q 2806 -91 2034 -91 
Q 1263 -91 848 271 
Q 434 634 434 1313 
Q 434 1759 690 2068 
Q 947 2378 1403 2484 
z
M 1172 3481 
Q 1172 3119 1398 2916 
Q 1625 2713 2034 2713 
Q 2441 2713 2670 2916 
Q 2900 3119 2900 3481 
Q 2900 3844 2670 4047 
Q 2441 4250 2034 4250 
Q 1625 4250 1398 4047 
Q 1172 3844 1172 3481 
z
" transform="scale(0.015625)"/>
       </defs>
       <use xlink:href="#DejaVuSans-30"/>
       <use xlink:href="#DejaVuSans-2e" x="63.623047"/>
       <use xlink:href="#DejaVuSans-38" x="95.410156"/>
      </g>
     </g>
    </g>
    <g id="xtick_4">
     <g id="line2d_7">
      <path d="M 48.517594 129.04 
L 48.517594 7.2 
" clip-path="url(#p201a07aa1d)" style="fill: none; stroke-dasharray: 1.11,0.48; stroke-dashoffset: 0; stroke: #b0b0b0; stroke-opacity: 0.4; stroke-width: 0.3"/>
     </g>
     <g id="line2d_8">
      <defs>
       <path id="mdbd9a29251" d="M 0 0 
L 0 2 
" style="stroke: #000000; stroke-width: 0.6"/>
      </defs>
      <g>
       <use xlink:href="#mdbd9a29251" x="48.517594" y="129.04" style="stroke: #000000; stroke-width: 0.6"/>
      </g>
     </g>
    </g>
    <g id="xtick_5">
     <g id="line2d_9">
      <path d="M 86.833598 129.04 
L 86.833598 7.2 
" clip-path="url(#p201a07aa1d)" style="fill: none; stroke-dasharray: 1.11,0.48; stroke-dashoffset: 0; stroke: #b0b0b0; stroke-opacity: 0.4; stroke-width: 0.3"/>
     </g>
     <g id="line2d_10">
      <g>
       <use xlink:href="#mdbd9a29251" x="86.833598" y="129.04" style="stroke: #000000; stroke-width: 0.6"/>
      </g>
     </g>
    </g>
    <g id="xtick_6">
     <g id="line2d_11">
      <path d="M 106.289645 129.04 
L 106.289645 7.2 
" clip-path="url(#p201a07aa1d)" style="fill: none; stroke-dasharray: 1.11,0.48; stroke-dashoffset: 0; stroke: #b0b0b0; stroke-opacity: 0.4; stroke-width: 0.3"/>
     </g>
     <g id="line2d_12">
      <g>
       <use xlink:href="#mdbd9a29251" x="106.289645" y="129.04" style="stroke: #000000; stroke-width: 0.6"/>
      </g>
     </g>
    </g>
    <g id="xtick_7">
     <g id="line2d_13">
      <path d="M 120.093929 129.04 
L 120.093929 7.2 
" clip-path="url(#p201a07aa1d)" style="fill: none; stroke-dasharray: 1.11,0.48; stroke-dashoffset: 0; stroke: #b0b0b0; stroke-opacity: 0.4; stroke-width: 0.3"/>
     </g>
     <g id="line2d_14">
      <g>
       <use xlink:href="#mdbd9a29251" x="120.093929" y="129.04" style="stroke: #000000; stroke-width: 0.6"/>
      </g>
     </g>
    </g>
    <g id="xtick_8">
     <g id="line2d_15">
      <path d="M 139.549976 129.04 
L 139.549976 7.2 
" clip-path="url(#p201a07aa1d)" style="fill: none; stroke-dasharray: 1.11,0.48; stroke-dashoffset: 0; stroke: #b0b0b0; stroke-opacity: 0.4; stroke-width: 0.3"/>
     </g>
     <g id="line2d_16">
      <g>
       <use xlink:href="#mdbd9a29251" x="139.549976" y="129.04" style="stroke: #000000; stroke-width: 0.6"/>
      </g>
     </g>
    </g>
    <g id="xtick_9">
     <g id="line2d_17">
      <path d="M 146.946821 129.04 
L 146.946821 7.2 
" clip-path="url(#p201a07aa1d)" style="fill: none; stroke-dasharray: 1.11,0.48; stroke-dashoffset: 0; stroke: #b0b0b0; stroke-opacity: 0.4; stroke-width: 0.3"/>
     </g>
     <g id="line2d_18">
      <g>
       <use xlink:href="#mdbd9a29251" x="146.946821" y="129.04" style="stroke: #000000; stroke-width: 0.6"/>
      </g>
     </g>
    </g>
    <g id="xtick_10">
     <g id="line2d_19">
      <path d="M 159.006022 129.04 
L 159.006022 7.2 
" clip-path="url(#p201a07aa1d)" style="fill: none; stroke-dasharray: 1.11,0.48; stroke-dashoffset: 0; stroke: #b0b0b0; stroke-opacity: 0.4; stroke-width: 0.3"/>
     </g>
     <g id="line2d_20">
      <g>
       <use xlink:href="#mdbd9a29251" x="159.006022" y="129.04" style="stroke: #000000; stroke-width: 0.6"/>
      </g>
     </g>
    </g>
    <g id="xtick_11">
     <g id="line2d_21">
      <path d="M 197.322027 129.04 
L 197.322027 7.2 
" clip-path="url(#p201a07aa1d)" style="fill: none; stroke-dasharray: 1.11,0.48; stroke-dashoffset: 0; stroke: #b0b0b0; stroke-opacity: 0.4; stroke-width: 0.3"/>
     </g>
     <g id="line2d_22">
      <g>
       <use xlink:href="#mdbd9a29251" x="197.322027" y="129.04" style="stroke: #000000; stroke-width: 0.6"/>
      </g>
     </g>
    </g>
    <g id="xtick_12">
     <g id="line2d_23">
      <path d="M 216.778073 129.04 
L 216.778073 7.2 
" clip-path="url(#p201a07aa1d)" style="fill: none; stroke-dasharray: 1.11,0.48; stroke-dashoffset: 0; stroke: #b0b0b0; stroke-opacity: 0.4; stroke-width: 0.3"/>
     </g>
     <g id="line2d_24">
      <g>
       <use xlink:href="#mdbd9a29251" x="216.778073" y="129.04" style="stroke: #000000; stroke-width: 0.6"/>
      </g>
     </g>
    </g>
    <g id="xtick_13">
     <g id="line2d_25">
      <path d="M 230.582358 129.04 
L 230.582358 7.2 
" clip-path="url(#p201a07aa1d)" style="fill: none; stroke-dasharray: 1.11,0.48; stroke-dashoffset: 0; stroke: #b0b0b0; stroke-opacity: 0.4; stroke-width: 0.3"/>
     </g>
     <g id="line2d_26">
      <g>
       <use xlink:href="#mdbd9a29251" x="230.582358" y="129.04" style="stroke: #000000; stroke-width: 0.6"/>
      </g>
     </g>
    </g>
    <g id="text_4">
     <!-- Prediction Multiplier -->
     <g transform="translate(97.319688 154.621094)scale(0.09 -0.09)">
      <defs>
       <path id="DejaVuSans-50" d="M 1259 4147 
L 1259 2394 
L 2053 2394 
Q 2494 2394 2734 2622 
Q 2975 2850 2975 3272 
Q 2975 3691 2734 3919 
Q 2494 4147 2053 4147 
L 1259 4147 
z
M 628 4666 
L 2053 4666 
Q 2838 4666 3239 4311 
Q 3641 3956 3641 3272 
Q 3641 2581 3239 2228 
Q 2838 1875 2053 1875 
L 1259 1875 
L 1259 0 
L 628 0 
L 628 4666 
z
" transform="scale(0.015625)"/>
       <path id="DejaVuSans-72" d="M 2631 2963 
Q 2534 3019 2420 3045 
Q 2306 3072 2169 3072 
Q 1681 3072 1420 2755 
Q 1159 2438 1159 1844 
L 1159 0 
L 581 0 
L 581 3500 
L 1159 3500 
L 1159 2956 
Q 1341 3275 1631 3429 
Q 1922 3584 2338 3584 
Q 2397 3584 2469 3576 
Q 2541 3569 2628 3553 
L 2631 2963 
z
" transform="scale(0.015625)"/>
       <path id="DejaVuSans-65" d="M 3597 1894 
L 3597 1613 
L 953 1613 
Q 991 1019 1311 708 
Q 1631 397 2203 397 
Q 2534 397 2845 478 
Q 3156 559 3463 722 
L 3463 178 
Q 3153 47 2828 -22 
Q 2503 -91 2169 -91 
Q 1331 -91 842 396 
Q 353 884 353 1716 
Q 353 2575 817 3079 
Q 1281 3584 2069 3584 
Q 2775 3584 3186 3129 
Q 3597 2675 3597 1894 
z
M 3022 2063 
Q 3016 2534 2758 2815 
Q 2500 3097 2075 3097 
Q 1594 3097 1305 2825 
Q 1016 2553 972 2059 
L 3022 2063 
z
" transform="scale(0.015625)"/>
       <path id="DejaVuSans-64" d="M 2906 2969 
L 2906 4863 
L 3481 4863 
L 3481 0 
L 2906 0 
L 2906 525 
Q 2725 213 2448 61 
Q 2172 -91 1784 -91 
Q 1150 -91 751 415 
Q 353 922 353 1747 
Q 353 2572 751 3078 
Q 1150 3584 1784 3584 
Q 2172 3584 2448 3432 
Q 2725 3281 2906 2969 
z
M 947 1747 
Q 947 1113 1208 752 
Q 1469 391 1925 391 
Q 2381 391 2643 752 
Q 2906 1113 2906 1747 
Q 2906 2381 2643 2742 
Q 2381 3103 1925 3103 
Q 1469 3103 1208 2742 
Q 947 2381 947 1747 
z
" transform="scale(0.015625)"/>
       <path id="DejaVuSans-69" d="M 603 3500 
L 1178 3500 
L 1178 0 
L 603 0 
L 603 3500 
z
M 603 4863 
L 1178 4863 
L 1178 4134 
L 603 4134 
L 603 4863 
z
" transform="scale(0.015625)"/>
       <path id="DejaVuSans-63" d="M 3122 3366 
L 3122 2828 
Q 2878 2963 2633 3030 
Q 2388 3097 2138 3097 
Q 1578 3097 1268 2742 
Q 959 2388 959 1747 
Q 959 1106 1268 751 
Q 1578 397 2138 397 
Q 2388 397 2633 464 
Q 2878 531 3122 666 
L 3122 134 
Q 2881 22 2623 -34 
Q 2366 -91 2075 -91 
Q 1284 -91 818 406 
Q 353 903 353 1747 
Q 353 2603 823 3093 
Q 1294 3584 2113 3584 
Q 2378 3584 2631 3529 
Q 2884 3475 3122 3366 
z
" transform="scale(0.015625)"/>
       <path id="DejaVuSans-74" d="M 1172 4494 
L 1172 3500 
L 2356 3500 
L 2356 3053 
L 1172 3053 
L 1172 1153 
Q 1172 725 1289 603 
Q 1406 481 1766 481 
L 2356 481 
L 2356 0 
L 1766 0 
Q 1100 0 847 248 
Q 594 497 594 1153 
L 594 3053 
L 172 3053 
L 172 3500 
L 594 3500 
L 594 4494 
L 1172 4494 
z
" transform="scale(0.015625)"/>
       <path id="DejaVuSans-6f" d="M 1959 3097 
Q 1497 3097 1228 2736 
Q 959 2375 959 1747 
Q 959 1119 1226 758 
Q 1494 397 1959 397 
Q 2419 397 2687 759 
Q 2956 1122 2956 1747 
Q 2956 2369 2687 2733 
Q 2419 3097 1959 3097 
z
M 1959 3584 
Q 2709 3584 3137 3096 
Q 3566 2609 3566 1747 
Q 3566 888 3137 398 
Q 2709 -91 1959 -91 
Q 1206 -91 779 398 
Q 353 888 353 1747 
Q 353 2609 779 3096 
Q 1206 3584 1959 3584 
z
" transform="scale(0.015625)"/>
       <path id="DejaVuSans-6e" d="M 3513 2113 
L 3513 0 
L 2938 0 
L 2938 2094 
Q 2938 2591 2744 2837 
Q 2550 3084 2163 3084 
Q 1697 3084 1428 2787 
Q 1159 2491 1159 1978 
L 1159 0 
L 581 0 
L 581 3500 
L 1159 3500 
L 1159 2956 
Q 1366 3272 1645 3428 
Q 1925 3584 2291 3584 
Q 2894 3584 3203 3211 
Q 3513 2838 3513 2113 
z
" transform="scale(0.015625)"/>
       <path id="DejaVuSans-20" transform="scale(0.015625)"/>
       <path id="DejaVuSans-4d" d="M 628 4666 
L 1569 4666 
L 2759 1491 
L 3956 4666 
L 4897 4666 
L 4897 0 
L 4281 0 
L 4281 4097 
L 3078 897 
L 2444 897 
L 1241 4097 
L 1241 0 
L 628 0 
L 628 4666 
z
" transform="scale(0.015625)"/>
       <path id="DejaVuSans-75" d="M 544 1381 
L 544 3500 
L 1119 3500 
L 1119 1403 
Q 1119 906 1312 657 
Q 1506 409 1894 409 
Q 2359 409 2629 706 
Q 2900 1003 2900 1516 
L 2900 3500 
L 3475 3500 
L 3475 0 
L 2900 0 
L 2900 538 
Q 2691 219 2414 64 
Q 2138 -91 1772 -91 
Q 1169 -91 856 284 
Q 544 659 544 1381 
z
M 1991 3584 
L 1991 3584 
z
" transform="scale(0.015625)"/>
       <path id="DejaVuSans-6c" d="M 603 4863 
L 1178 4863 
L 1178 0 
L 603 0 
L 603 4863 
z
" transform="scale(0.015625)"/>
       <path id="DejaVuSans-70" d="M 1159 525 
L 1159 -1331 
L 581 -1331 
L 581 3500 
L 1159 3500 
L 1159 2969 
Q 1341 3281 1617 3432 
Q 1894 3584 2278 3584 
Q 2916 3584 3314 3078 
Q 3713 2572 3713 1747 
Q 3713 922 3314 415 
Q 2916 -91 2278 -91 
Q 1894 -91 1617 61 
Q 1341 213 1159 525 
z
M 3116 1747 
Q 3116 2381 2855 2742 
Q 2594 3103 2138 3103 
Q 1681 3103 1420 2742 
Q 1159 2381 1159 1747 
Q 1159 1113 1420 752 
Q 1681 391 2138 391 
Q 2594 391 2855 752 
Q 3116 1113 3116 1747 
z
" transform="scale(0.015625)"/>
      </defs>
      <use xlink:href="#DejaVuSans-50"/>
      <use xlink:href="#DejaVuSans-72" x="58.552734"/>
      <use xlink:href="#DejaVuSans-65" x="97.416016"/>
      <use xlink:href="#DejaVuSans-64" x="158.939453"/>
      <use xlink:href="#DejaVuSans-69" x="222.416016"/>
      <use xlink:href="#DejaVuSans-63" x="250.199219"/>
      <use xlink:href="#DejaVuSans-74" x="305.179688"/>
      <use xlink:href="#DejaVuSans-69" x="344.388672"/>
      <use xlink:href="#DejaVuSans-6f" x="372.171875"/>
      <use xlink:href="#DejaVuSans-6e" x="433.353516"/>
      <use xlink:href="#DejaVuSans-20" x="496.732422"/>
      <use xlink:href="#DejaVuSans-4d" x="528.519531"/>
      <use xlink:href="#DejaVuSans-75" x="614.798828"/>
      <use xlink:href="#DejaVuSans-6c" x="678.177734"/>
      <use xlink:href="#DejaVuSans-74" x="705.960938"/>
      <use xlink:href="#DejaVuSans-69" x="745.169922"/>
      <use xlink:href="#DejaVuSans-70" x="772.953125"/>
      <use xlink:href="#DejaVuSans-6c" x="836.429688"/>
      <use xlink:href="#DejaVuSans-69" x="864.212891"/>
      <use xlink:href="#DejaVuSans-65" x="891.996094"/>
      <use xlink:href="#DejaVuSans-72" x="953.519531"/>
     </g>
    </g>
   </g>
   <g id="matplotlib.axis_2">
    <g id="ytick_1">
     <g id="line2d_27">
      <path d="M 44.722813 112.23203 
L 239.432813 112.23203 
" clip-path="url(#p201a07aa1d)" style="fill: none; stroke-dasharray: 1.11,0.48; stroke-dashoffset: 0; stroke: #b0b0b0; stroke-opacity: 0.4; stroke-width: 0.3"/>
     </g>
     <g id="line2d_28">
      <defs>
       <path id="mad42cfe1c4" d="M 0 0 
L -3.5 0 
" style="stroke: #000000; stroke-width: 0.8"/>
      </defs>
      <g>
       <use xlink:href="#mad42cfe1c4" x="44.722813" y="112.23203" style="stroke: #000000; stroke-width: 0.8"/>
      </g>
     </g>
     <g id="text_5">
      <!-- 1.16 -->
      <g transform="translate(19.910313 115.271405)scale(0.08 -0.08)">
       <defs>
        <path id="DejaVuSans-36" d="M 2113 2584 
Q 1688 2584 1439 2293 
Q 1191 2003 1191 1497 
Q 1191 994 1439 701 
Q 1688 409 2113 409 
Q 2538 409 2786 701 
Q 3034 994 3034 1497 
Q 3034 2003 2786 2293 
Q 2538 2584 2113 2584 
z
M 3366 4563 
L 3366 3988 
Q 3128 4100 2886 4159 
Q 2644 4219 2406 4219 
Q 1781 4219 1451 3797 
Q 1122 3375 1075 2522 
Q 1259 2794 1537 2939 
Q 1816 3084 2150 3084 
Q 2853 3084 3261 2657 
Q 3669 2231 3669 1497 
Q 3669 778 3244 343 
Q 2819 -91 2113 -91 
Q 1303 -91 875 529 
Q 447 1150 447 2328 
Q 447 3434 972 4092 
Q 1497 4750 2381 4750 
Q 2619 4750 2861 4703 
Q 3103 4656 3366 4563 
z
" transform="scale(0.015625)"/>
       </defs>
       <use xlink:href="#DejaVuSans-31"/>
       <use xlink:href="#DejaVuSans-2e" x="63.623047"/>
       <use xlink:href="#DejaVuSans-31" x="95.410156"/>
       <use xlink:href="#DejaVuSans-36" x="159.033203"/>
      </g>
     </g>
    </g>
    <g id="ytick_2">
     <g id="line2d_29">
      <path d="M 44.722813 94.374601 
L 239.432813 94.374601 
" clip-path="url(#p201a07aa1d)" style="fill: none; stroke-dasharray: 1.11,0.48; stroke-dashoffset: 0; stroke: #b0b0b0; stroke-opacity: 0.4; stroke-width: 0.3"/>
     </g>
     <g id="line2d_30">
      <g>
       <use xlink:href="#mad42cfe1c4" x="44.722813" y="94.374601" style="stroke: #000000; stroke-width: 0.8"/>
      </g>
     </g>
     <g id="text_6">
      <!-- 1.18 -->
      <g transform="translate(19.910313 97.413976)scale(0.08 -0.08)">
       <use xlink:href="#DejaVuSans-31"/>
       <use xlink:href="#DejaVuSans-2e" x="63.623047"/>
       <use xlink:href="#DejaVuSans-31" x="95.410156"/>
       <use xlink:href="#DejaVuSans-38" x="159.033203"/>
      </g>
     </g>
    </g>
    <g id="ytick_3">
     <g id="line2d_31">
      <path d="M 44.722813 76.517172 
L 239.432813 76.517172 
" clip-path="url(#p201a07aa1d)" style="fill: none; stroke-dasharray: 1.11,0.48; stroke-dashoffset: 0; stroke: #b0b0b0; stroke-opacity: 0.4; stroke-width: 0.3"/>
     </g>
     <g id="line2d_32">
      <g>
       <use xlink:href="#mad42cfe1c4" x="44.722813" y="76.517172" style="stroke: #000000; stroke-width: 0.8"/>
      </g>
     </g>
     <g id="text_7">
      <!-- 1.20 -->
      <g transform="translate(19.910313 79.556547)scale(0.08 -0.08)">
       <defs>
        <path id="DejaVuSans-32" d="M 1228 531 
L 3431 531 
L 3431 0 
L 469 0 
L 469 531 
Q 828 903 1448 1529 
Q 2069 2156 2228 2338 
Q 2531 2678 2651 2914 
Q 2772 3150 2772 3378 
Q 2772 3750 2511 3984 
Q 2250 4219 1831 4219 
Q 1534 4219 1204 4116 
Q 875 4013 500 3803 
L 500 4441 
Q 881 4594 1212 4672 
Q 1544 4750 1819 4750 
Q 2544 4750 2975 4387 
Q 3406 4025 3406 3419 
Q 3406 3131 3298 2873 
Q 3191 2616 2906 2266 
Q 2828 2175 2409 1742 
Q 1991 1309 1228 531 
z
" transform="scale(0.015625)"/>
       </defs>
       <use xlink:href="#DejaVuSans-31"/>
       <use xlink:href="#DejaVuSans-2e" x="63.623047"/>
       <use xlink:href="#DejaVuSans-32" x="95.410156"/>
       <use xlink:href="#DejaVuSans-30" x="159.033203"/>
      </g>
     </g>
    </g>
    <g id="ytick_4">
     <g id="line2d_33">
      <path d="M 44.722813 58.659743 
L 239.432813 58.659743 
" clip-path="url(#p201a07aa1d)" style="fill: none; stroke-dasharray: 1.11,0.48; stroke-dashoffset: 0; stroke: #b0b0b0; stroke-opacity: 0.4; stroke-width: 0.3"/>
     </g>
     <g id="line2d_34">
      <g>
       <use xlink:href="#mad42cfe1c4" x="44.722813" y="58.659743" style="stroke: #000000; stroke-width: 0.8"/>
      </g>
     </g>
     <g id="text_8">
      <!-- 1.22 -->
      <g transform="translate(19.910313 61.699118)scale(0.08 -0.08)">
       <use xlink:href="#DejaVuSans-31"/>
       <use xlink:href="#DejaVuSans-2e" x="63.623047"/>
       <use xlink:href="#DejaVuSans-32" x="95.410156"/>
       <use xlink:href="#DejaVuSans-32" x="159.033203"/>
      </g>
     </g>
    </g>
    <g id="ytick_5">
     <g id="line2d_35">
      <path d="M 44.722813 40.802314 
L 239.432813 40.802314 
" clip-path="url(#p201a07aa1d)" style="fill: none; stroke-dasharray: 1.11,0.48; stroke-dashoffset: 0; stroke: #b0b0b0; stroke-opacity: 0.4; stroke-width: 0.3"/>
     </g>
     <g id="line2d_36">
      <g>
       <use xlink:href="#mad42cfe1c4" x="44.722813" y="40.802314" style="stroke: #000000; stroke-width: 0.8"/>
      </g>
     </g>
     <g id="text_9">
      <!-- 1.24 -->
      <g transform="translate(19.910313 43.841689)scale(0.08 -0.08)">
       <defs>
        <path id="DejaVuSans-34" d="M 2419 4116 
L 825 1625 
L 2419 1625 
L 2419 4116 
z
M 2253 4666 
L 3047 4666 
L 3047 1625 
L 3713 1625 
L 3713 1100 
L 3047 1100 
L 3047 0 
L 2419 0 
L 2419 1100 
L 313 1100 
L 313 1709 
L 2253 4666 
z
" transform="scale(0.015625)"/>
       </defs>
       <use xlink:href="#DejaVuSans-31"/>
       <use xlink:href="#DejaVuSans-2e" x="63.623047"/>
       <use xlink:href="#DejaVuSans-32" x="95.410156"/>
       <use xlink:href="#DejaVuSans-34" x="159.033203"/>
      </g>
     </g>
    </g>
    <g id="ytick_6">
     <g id="line2d_37">
      <path d="M 44.722813 22.944885 
L 239.432813 22.944885 
" clip-path="url(#p201a07aa1d)" style="fill: none; stroke-dasharray: 1.11,0.48; stroke-dashoffset: 0; stroke: #b0b0b0; stroke-opacity: 0.4; stroke-width: 0.3"/>
     </g>
     <g id="line2d_38">
      <g>
       <use xlink:href="#mad42cfe1c4" x="44.722813" y="22.944885" style="stroke: #000000; stroke-width: 0.8"/>
      </g>
     </g>
     <g id="text_10">
      <!-- 1.26 -->
      <g transform="translate(19.910313 25.98426)scale(0.08 -0.08)">
       <use xlink:href="#DejaVuSans-31"/>
       <use xlink:href="#DejaVuSans-2e" x="63.623047"/>
       <use xlink:href="#DejaVuSans-32" x="95.410156"/>
       <use xlink:href="#DejaVuSans-36" x="159.033203"/>
      </g>
     </g>
    </g>
    <g id="text_11">
     <!-- Average Competitive Ratio -->
     <g transform="translate(14.038594 128.376406)rotate(-90)scale(0.09 -0.09)">
      <defs>
       <path id="DejaVuSans-41" d="M 2188 4044 
L 1331 1722 
L 3047 1722 
L 2188 4044 
z
M 1831 4666 
L 2547 4666 
L 4325 0 
L 3669 0 
L 3244 1197 
L 1141 1197 
L 716 0 
L 50 0 
L 1831 4666 
z
" transform="scale(0.015625)"/>
       <path id="DejaVuSans-76" d="M 191 3500 
L 800 3500 
L 1894 563 
L 2988 3500 
L 3597 3500 
L 2284 0 
L 1503 0 
L 191 3500 
z
" transform="scale(0.015625)"/>
       <path id="DejaVuSans-61" d="M 2194 1759 
Q 1497 1759 1228 1600 
Q 959 1441 959 1056 
Q 959 750 1161 570 
Q 1363 391 1709 391 
Q 2188 391 2477 730 
Q 2766 1069 2766 1631 
L 2766 1759 
L 2194 1759 
z
M 3341 1997 
L 3341 0 
L 2766 0 
L 2766 531 
Q 2569 213 2275 61 
Q 1981 -91 1556 -91 
Q 1019 -91 701 211 
Q 384 513 384 1019 
Q 384 1609 779 1909 
Q 1175 2209 1959 2209 
L 2766 2209 
L 2766 2266 
Q 2766 2663 2505 2880 
Q 2244 3097 1772 3097 
Q 1472 3097 1187 3025 
Q 903 2953 641 2809 
L 641 3341 
Q 956 3463 1253 3523 
Q 1550 3584 1831 3584 
Q 2591 3584 2966 3190 
Q 3341 2797 3341 1997 
z
" transform="scale(0.015625)"/>
       <path id="DejaVuSans-67" d="M 2906 1791 
Q 2906 2416 2648 2759 
Q 2391 3103 1925 3103 
Q 1463 3103 1205 2759 
Q 947 2416 947 1791 
Q 947 1169 1205 825 
Q 1463 481 1925 481 
Q 2391 481 2648 825 
Q 2906 1169 2906 1791 
z
M 3481 434 
Q 3481 -459 3084 -895 
Q 2688 -1331 1869 -1331 
Q 1566 -1331 1297 -1286 
Q 1028 -1241 775 -1147 
L 775 -588 
Q 1028 -725 1275 -790 
Q 1522 -856 1778 -856 
Q 2344 -856 2625 -561 
Q 2906 -266 2906 331 
L 2906 616 
Q 2728 306 2450 153 
Q 2172 0 1784 0 
Q 1141 0 747 490 
Q 353 981 353 1791 
Q 353 2603 747 3093 
Q 1141 3584 1784 3584 
Q 2172 3584 2450 3431 
Q 2728 3278 2906 2969 
L 2906 3500 
L 3481 3500 
L 3481 434 
z
" transform="scale(0.015625)"/>
       <path id="DejaVuSans-43" d="M 4122 4306 
L 4122 3641 
Q 3803 3938 3442 4084 
Q 3081 4231 2675 4231 
Q 1875 4231 1450 3742 
Q 1025 3253 1025 2328 
Q 1025 1406 1450 917 
Q 1875 428 2675 428 
Q 3081 428 3442 575 
Q 3803 722 4122 1019 
L 4122 359 
Q 3791 134 3420 21 
Q 3050 -91 2638 -91 
Q 1578 -91 968 557 
Q 359 1206 359 2328 
Q 359 3453 968 4101 
Q 1578 4750 2638 4750 
Q 3056 4750 3426 4639 
Q 3797 4528 4122 4306 
z
" transform="scale(0.015625)"/>
       <path id="DejaVuSans-6d" d="M 3328 2828 
Q 3544 3216 3844 3400 
Q 4144 3584 4550 3584 
Q 5097 3584 5394 3201 
Q 5691 2819 5691 2113 
L 5691 0 
L 5113 0 
L 5113 2094 
Q 5113 2597 4934 2840 
Q 4756 3084 4391 3084 
Q 3944 3084 3684 2787 
Q 3425 2491 3425 1978 
L 3425 0 
L 2847 0 
L 2847 2094 
Q 2847 2600 2669 2842 
Q 2491 3084 2119 3084 
Q 1678 3084 1418 2786 
Q 1159 2488 1159 1978 
L 1159 0 
L 581 0 
L 581 3500 
L 1159 3500 
L 1159 2956 
Q 1356 3278 1631 3431 
Q 1906 3584 2284 3584 
Q 2666 3584 2933 3390 
Q 3200 3197 3328 2828 
z
" transform="scale(0.015625)"/>
       <path id="DejaVuSans-52" d="M 2841 2188 
Q 3044 2119 3236 1894 
Q 3428 1669 3622 1275 
L 4263 0 
L 3584 0 
L 2988 1197 
Q 2756 1666 2539 1819 
Q 2322 1972 1947 1972 
L 1259 1972 
L 1259 0 
L 628 0 
L 628 4666 
L 2053 4666 
Q 2853 4666 3247 4331 
Q 3641 3997 3641 3322 
Q 3641 2881 3436 2590 
Q 3231 2300 2841 2188 
z
M 1259 4147 
L 1259 2491 
L 2053 2491 
Q 2509 2491 2742 2702 
Q 2975 2913 2975 3322 
Q 2975 3731 2742 3939 
Q 2509 4147 2053 4147 
L 1259 4147 
z
" transform="scale(0.015625)"/>
      </defs>
      <use xlink:href="#DejaVuSans-41"/>
      <use xlink:href="#DejaVuSans-76" x="62.533203"/>
      <use xlink:href="#DejaVuSans-65" x="121.712891"/>
      <use xlink:href="#DejaVuSans-72" x="183.236328"/>
      <use xlink:href="#DejaVuSans-61" x="224.349609"/>
      <use xlink:href="#DejaVuSans-67" x="285.628906"/>
      <use xlink:href="#DejaVuSans-65" x="349.105469"/>
      <use xlink:href="#DejaVuSans-20" x="410.628906"/>
      <use xlink:href="#DejaVuSans-43" x="442.416016"/>
      <use xlink:href="#DejaVuSans-6f" x="512.240234"/>
      <use xlink:href="#DejaVuSans-6d" x="573.421875"/>
      <use xlink:href="#DejaVuSans-70" x="670.833984"/>
      <use xlink:href="#DejaVuSans-65" x="734.310547"/>
      <use xlink:href="#DejaVuSans-74" x="795.833984"/>
      <use xlink:href="#DejaVuSans-69" x="835.042969"/>
      <use xlink:href="#DejaVuSans-74" x="862.826172"/>
      <use xlink:href="#DejaVuSans-69" x="902.035156"/>
      <use xlink:href="#DejaVuSans-76" x="929.818359"/>
      <use xlink:href="#DejaVuSans-65" x="988.998047"/>
      <use xlink:href="#DejaVuSans-20" x="1050.521484"/>
      <use xlink:href="#DejaVuSans-52" x="1082.308594"/>
      <use xlink:href="#DejaVuSans-61" x="1149.541016"/>
      <use xlink:href="#DejaVuSans-74" x="1210.820312"/>
      <use xlink:href="#DejaVuSans-69" x="1250.029297"/>
      <use xlink:href="#DejaVuSans-6f" x="1277.8125"/>
     </g>
    </g>
   </g>
   <g id="line2d_39">
    <path d="M -1 49.080856 
L 53.573267 49.080856 
L 86.833598 49.080856 
L 106.289645 49.080856 
L 106.289645 49.080856 
L 120.093929 49.080856 
L 130.801364 49.080856 
L 130.801364 49.080856 
L 139.549976 49.080856 
L 146.946821 49.080856 
L 153.354261 49.080856 
L 183.517742 49.080856 
L 208.029462 49.080856 
L 230.582358 49.080856 
" clip-path="url(#p201a07aa1d)" style="fill: none; stroke: #1f77b4; stroke-width: 1.6; stroke-linecap: square"/>
    <defs>
     <path id="ma11f34bf26" d="M 0 1.8 
C 0.477366 1.8 0.935244 1.610341 1.272792 1.272792 
C 1.610341 0.935244 1.8 0.477366 1.8 0 
C 1.8 -0.477366 1.610341 -0.935244 1.272792 -1.272792 
C 0.935244 -1.610341 0.477366 -1.8 0 -1.8 
C -0.477366 -1.8 -0.935244 -1.610341 -1.272792 -1.272792 
C -1.610341 -0.935244 -1.8 -0.477366 -1.8 0 
C -1.8 0.477366 -1.610341 0.935244 -1.272792 1.272792 
C -0.935244 1.610341 -0.477366 1.8 0 1.8 
z
" style="stroke: #1f77b4"/>
    </defs>
    <g clip-path="url(#p201a07aa1d)">
     <use xlink:href="#ma11f34bf26" x="-1" y="49.080856" style="fill: #1f77b4; stroke: #1f77b4"/>
     <use xlink:href="#ma11f34bf26" x="53.573267" y="49.080856" style="fill: #1f77b4; stroke: #1f77b4"/>
     <use xlink:href="#ma11f34bf26" x="86.833598" y="49.080856" style="fill: #1f77b4; stroke: #1f77b4"/>
     <use xlink:href="#ma11f34bf26" x="106.289645" y="49.080856" style="fill: #1f77b4; stroke: #1f77b4"/>
     <use xlink:href="#ma11f34bf26" x="106.289645" y="49.080856" style="fill: #1f77b4; stroke: #1f77b4"/>
     <use xlink:href="#ma11f34bf26" x="120.093929" y="49.080856" style="fill: #1f77b4; stroke: #1f77b4"/>
     <use xlink:href="#ma11f34bf26" x="130.801364" y="49.080856" style="fill: #1f77b4; stroke: #1f77b4"/>
     <use xlink:href="#ma11f34bf26" x="130.801364" y="49.080856" style="fill: #1f77b4; stroke: #1f77b4"/>
     <use xlink:href="#ma11f34bf26" x="139.549976" y="49.080856" style="fill: #1f77b4; stroke: #1f77b4"/>
     <use xlink:href="#ma11f34bf26" x="146.946821" y="49.080856" style="fill: #1f77b4; stroke: #1f77b4"/>
     <use xlink:href="#ma11f34bf26" x="153.354261" y="49.080856" style="fill: #1f77b4; stroke: #1f77b4"/>
     <use xlink:href="#ma11f34bf26" x="183.517742" y="49.080856" style="fill: #1f77b4; stroke: #1f77b4"/>
     <use xlink:href="#ma11f34bf26" x="208.029462" y="49.080856" style="fill: #1f77b4; stroke: #1f77b4"/>
     <use xlink:href="#ma11f34bf26" x="230.582358" y="49.080856" style="fill: #1f77b4; stroke: #1f77b4"/>
    </g>
   </g>
   <g id="line2d_40">
    <path d="M -1 95.883554 
L 53.573267 95.883554 
L 86.833598 95.883554 
L 106.289645 95.883554 
L 106.289645 95.883554 
L 120.093929 95.883554 
L 130.801364 95.883554 
L 130.801364 95.883554 
L 139.549976 95.883554 
L 146.946821 95.883554 
L 153.354261 95.883554 
L 183.517742 95.883554 
L 208.029462 95.883554 
L 230.582358 95.883554 
" clip-path="url(#p201a07aa1d)" style="fill: none; stroke: #ff7f0e; stroke-width: 1.6; stroke-linecap: square"/>
    <defs>
     <path id="mdecf1785ee" d="M 0 1.8 
C 0.477366 1.8 0.935244 1.610341 1.272792 1.272792 
C 1.610341 0.935244 1.8 0.477366 1.8 0 
C 1.8 -0.477366 1.610341 -0.935244 1.272792 -1.272792 
C 0.935244 -1.610341 0.477366 -1.8 0 -1.8 
C -0.477366 -1.8 -0.935244 -1.610341 -1.272792 -1.272792 
C -1.610341 -0.935244 -1.8 -0.477366 -1.8 0 
C -1.8 0.477366 -1.610341 0.935244 -1.272792 1.272792 
C -0.935244 1.610341 -0.477366 1.8 0 1.8 
z
" style="stroke: #ff7f0e"/>
    </defs>
    <g clip-path="url(#p201a07aa1d)">
     <use xlink:href="#mdecf1785ee" x="-1" y="95.883554" style="fill: #ff7f0e; stroke: #ff7f0e"/>
     <use xlink:href="#mdecf1785ee" x="53.573267" y="95.883554" style="fill: #ff7f0e; stroke: #ff7f0e"/>
     <use xlink:href="#mdecf1785ee" x="86.833598" y="95.883554" style="fill: #ff7f0e; stroke: #ff7f0e"/>
     <use xlink:href="#mdecf1785ee" x="106.289645" y="95.883554" style="fill: #ff7f0e; stroke: #ff7f0e"/>
     <use xlink:href="#mdecf1785ee" x="106.289645" y="95.883554" style="fill: #ff7f0e; stroke: #ff7f0e"/>
     <use xlink:href="#mdecf1785ee" x="120.093929" y="95.883554" style="fill: #ff7f0e; stroke: #ff7f0e"/>
     <use xlink:href="#mdecf1785ee" x="130.801364" y="95.883554" style="fill: #ff7f0e; stroke: #ff7f0e"/>
     <use xlink:href="#mdecf1785ee" x="130.801364" y="95.883554" style="fill: #ff7f0e; stroke: #ff7f0e"/>
     <use xlink:href="#mdecf1785ee" x="139.549976" y="95.883554" style="fill: #ff7f0e; stroke: #ff7f0e"/>
     <use xlink:href="#mdecf1785ee" x="146.946821" y="95.883554" style="fill: #ff7f0e; stroke: #ff7f0e"/>
     <use xlink:href="#mdecf1785ee" x="153.354261" y="95.883554" style="fill: #ff7f0e; stroke: #ff7f0e"/>
     <use xlink:href="#mdecf1785ee" x="183.517742" y="95.883554" style="fill: #ff7f0e; stroke: #ff7f0e"/>
     <use xlink:href="#mdecf1785ee" x="208.029462" y="95.883554" style="fill: #ff7f0e; stroke: #ff7f0e"/>
     <use xlink:href="#mdecf1785ee" x="230.582358" y="95.883554" style="fill: #ff7f0e; stroke: #ff7f0e"/>
    </g>
   </g>
   <g id="line2d_41">
    <path d="M -1 56.279125 
L 53.573267 56.279125 
L 86.833598 56.279125 
L 106.289645 56.279125 
L 106.289645 56.279125 
L 120.093929 56.279125 
L 130.801364 56.279125 
L 130.801364 56.279125 
L 139.549976 56.279125 
L 146.946821 56.279125 
L 153.354261 56.279125 
L 183.517742 56.279125 
L 208.029462 56.279125 
L 230.582358 56.279125 
" clip-path="url(#p201a07aa1d)" style="fill: none; stroke: #2ca02c; stroke-width: 1.6; stroke-linecap: square"/>
    <defs>
     <path id="m796b62f01f" d="M 0 1.8 
C 0.477366 1.8 0.935244 1.610341 1.272792 1.272792 
C 1.610341 0.935244 1.8 0.477366 1.8 0 
C 1.8 -0.477366 1.610341 -0.935244 1.272792 -1.272792 
C 0.935244 -1.610341 0.477366 -1.8 0 -1.8 
C -0.477366 -1.8 -0.935244 -1.610341 -1.272792 -1.272792 
C -1.610341 -0.935244 -1.8 -0.477366 -1.8 0 
C -1.8 0.477366 -1.610341 0.935244 -1.272792 1.272792 
C -0.935244 1.610341 -0.477366 1.8 0 1.8 
z
" style="stroke: #2ca02c"/>
    </defs>
    <g clip-path="url(#p201a07aa1d)">
     <use xlink:href="#m796b62f01f" x="-1" y="56.279125" style="fill: #2ca02c; stroke: #2ca02c"/>
     <use xlink:href="#m796b62f01f" x="53.573267" y="56.279125" style="fill: #2ca02c; stroke: #2ca02c"/>
     <use xlink:href="#m796b62f01f" x="86.833598" y="56.279125" style="fill: #2ca02c; stroke: #2ca02c"/>
     <use xlink:href="#m796b62f01f" x="106.289645" y="56.279125" style="fill: #2ca02c; stroke: #2ca02c"/>
     <use xlink:href="#m796b62f01f" x="106.289645" y="56.279125" style="fill: #2ca02c; stroke: #2ca02c"/>
     <use xlink:href="#m796b62f01f" x="120.093929" y="56.279125" style="fill: #2ca02c; stroke: #2ca02c"/>
     <use xlink:href="#m796b62f01f" x="130.801364" y="56.279125" style="fill: #2ca02c; stroke: #2ca02c"/>
     <use xlink:href="#m796b62f01f" x="130.801364" y="56.279125" style="fill: #2ca02c; stroke: #2ca02c"/>
     <use xlink:href="#m796b62f01f" x="139.549976" y="56.279125" style="fill: #2ca02c; stroke: #2ca02c"/>
     <use xlink:href="#m796b62f01f" x="146.946821" y="56.279125" style="fill: #2ca02c; stroke: #2ca02c"/>
     <use xlink:href="#m796b62f01f" x="153.354261" y="56.279125" style="fill: #2ca02c; stroke: #2ca02c"/>
     <use xlink:href="#m796b62f01f" x="183.517742" y="56.279125" style="fill: #2ca02c; stroke: #2ca02c"/>
     <use xlink:href="#m796b62f01f" x="208.029462" y="56.279125" style="fill: #2ca02c; stroke: #2ca02c"/>
     <use xlink:href="#m796b62f01f" x="230.582358" y="56.279125" style="fill: #2ca02c; stroke: #2ca02c"/>
    </g>
   </g>
   <g id="patch_3">
    <path d="M 44.722813 129.04 
L 44.722813 7.2 
" style="fill: none; stroke: #000000; stroke-width: 0.8; stroke-linejoin: miter; stroke-linecap: square"/>
   </g>
   <g id="patch_4">
    <path d="M 239.432813 129.04 
L 239.432813 7.2 
" style="fill: none; stroke: #000000; stroke-width: 0.8; stroke-linejoin: miter; stroke-linecap: square"/>
   </g>
   <g id="patch_5">
    <path d="M 44.722813 129.04 
L 239.432813 129.04 
" style="fill: none; stroke: #000000; stroke-width: 0.8; stroke-linejoin: miter; stroke-linecap: square"/>
   </g>
   <g id="patch_6">
    <path d="M 44.722813 7.2 
L 239.432813 7.2 
" style="fill: none; stroke: #000000; stroke-width: 0.8; stroke-linejoin: miter; stroke-linecap: square"/>
   </g>
   <g id="legend_1">
    <g id="line2d_42">
     <path d="M 80.807813 17.67875 
L 89.607813 17.67875 
L 98.407813 17.67875 
" style="fill: none; stroke: #1f77b4; stroke-width: 1.6; stroke-linecap: square"/>
     <g>
      <use xlink:href="#ma11f34bf26" x="89.607813" y="17.67875" style="fill: #1f77b4; stroke: #1f77b4"/>
     </g>
    </g>
    <g id="text_12">
     <!-- High Uncertainty (σ/μ=0.42) -->
     <g transform="translate(104.807813 20.47875)scale(0.08 -0.08)">
      <defs>
       <path id="DejaVuSans-48" d="M 628 4666 
L 1259 4666 
L 1259 2753 
L 3553 2753 
L 3553 4666 
L 4184 4666 
L 4184 0 
L 3553 0 
L 3553 2222 
L 1259 2222 
L 1259 0 
L 628 0 
L 628 4666 
z
" transform="scale(0.015625)"/>
       <path id="DejaVuSans-68" d="M 3513 2113 
L 3513 0 
L 2938 0 
L 2938 2094 
Q 2938 2591 2744 2837 
Q 2550 3084 2163 3084 
Q 1697 3084 1428 2787 
Q 1159 2491 1159 1978 
L 1159 0 
L 581 0 
L 581 4863 
L 1159 4863 
L 1159 2956 
Q 1366 3272 1645 3428 
Q 1925 3584 2291 3584 
Q 2894 3584 3203 3211 
Q 3513 2838 3513 2113 
z
" transform="scale(0.015625)"/>
       <path id="DejaVuSans-55" d="M 556 4666 
L 1191 4666 
L 1191 1831 
Q 1191 1081 1462 751 
Q 1734 422 2344 422 
Q 2950 422 3222 751 
Q 3494 1081 3494 1831 
L 3494 4666 
L 4128 4666 
L 4128 1753 
Q 4128 841 3676 375 
Q 3225 -91 2344 -91 
Q 1459 -91 1007 375 
Q 556 841 556 1753 
L 556 4666 
z
" transform="scale(0.015625)"/>
       <path id="DejaVuSans-79" d="M 2059 -325 
Q 1816 -950 1584 -1140 
Q 1353 -1331 966 -1331 
L 506 -1331 
L 506 -850 
L 844 -850 
Q 1081 -850 1212 -737 
Q 1344 -625 1503 -206 
L 1606 56 
L 191 3500 
L 800 3500 
L 1894 763 
L 2988 3500 
L 3597 3500 
L 2059 -325 
z
" transform="scale(0.015625)"/>
       <path id="DejaVuSans-28" d="M 1984 4856 
Q 1566 4138 1362 3434 
Q 1159 2731 1159 2009 
Q 1159 1288 1364 580 
Q 1569 -128 1984 -844 
L 1484 -844 
Q 1016 -109 783 600 
Q 550 1309 550 2009 
Q 550 2706 781 3412 
Q 1013 4119 1484 4856 
L 1984 4856 
z
" transform="scale(0.015625)"/>
       <path id="DejaVuSans-3c3" d="M 1959 3044 
Q 1484 3044 1228 2700 
Q 959 2341 959 1747 
Q 959 1119 1226 758 
Q 1494 397 1959 397 
Q 2419 397 2687 759 
Q 2956 1122 2956 1747 
Q 2956 2319 2688 2700 
Q 2441 3044 1959 3044 
z
M 1959 3500 
L 3869 3500 
L 3869 2925 
L 3225 2925 
Q 3566 2438 3566 1747 
Q 3566 888 3138 400 
Q 2709 -91 1959 -91 
Q 1206 -91 781 400 
Q 353 888 353 1747 
Q 353 2613 781 3097 
Q 1134 3500 1959 3500 
z
" transform="scale(0.015625)"/>
       <path id="DejaVuSans-2f" d="M 1625 4666 
L 2156 4666 
L 531 -594 
L 0 -594 
L 1625 4666 
z
" transform="scale(0.015625)"/>
       <path id="DejaVuSans-3bc" d="M 544 -1331 
L 544 3500 
L 1119 3500 
L 1119 1325 
Q 1119 872 1334 640 
Q 1550 409 1972 409 
Q 2434 409 2667 671 
Q 2900 934 2900 1459 
L 2900 3500 
L 3475 3500 
L 3475 806 
Q 3475 619 3529 530 
Q 3584 441 3700 441 
Q 3728 441 3778 458 
Q 3828 475 3916 513 
L 3916 50 
Q 3788 -22 3673 -56 
Q 3559 -91 3450 -91 
Q 3234 -91 3106 31 
Q 2978 153 2931 403 
Q 2775 156 2548 32 
Q 2322 -91 2016 -91 
Q 1697 -91 1473 31 
Q 1250 153 1119 397 
L 1119 -1331 
L 544 -1331 
z
" transform="scale(0.015625)"/>
       <path id="DejaVuSans-3d" d="M 678 2906 
L 4684 2906 
L 4684 2381 
L 678 2381 
L 678 2906 
z
M 678 1631 
L 4684 1631 
L 4684 1100 
L 678 1100 
L 678 1631 
z
" transform="scale(0.015625)"/>
       <path id="DejaVuSans-29" d="M 513 4856 
L 1013 4856 
Q 1481 4119 1714 3412 
Q 1947 2706 1947 2009 
Q 1947 1309 1714 600 
Q 1481 -109 1013 -844 
L 513 -844 
Q 928 -128 1133 580 
Q 1338 1288 1338 2009 
Q 1338 2731 1133 3434 
Q 928 4138 513 4856 
z
" transform="scale(0.015625)"/>
      </defs>
      <use xlink:href="#DejaVuSans-48"/>
      <use xlink:href="#DejaVuSans-69" x="75.195312"/>
      <use xlink:href="#DejaVuSans-67" x="102.978516"/>
      <use xlink:href="#DejaVuSans-68" x="166.455078"/>
      <use xlink:href="#DejaVuSans-20" x="229.833984"/>
      <use xlink:href="#DejaVuSans-55" x="261.621094"/>
      <use xlink:href="#DejaVuSans-6e" x="334.814453"/>
      <use xlink:href="#DejaVuSans-63" x="398.193359"/>
      <use xlink:href="#DejaVuSans-65" x="453.173828"/>
      <use xlink:href="#DejaVuSans-72" x="514.697266"/>
      <use xlink:href="#DejaVuSans-74" x="555.810547"/>
      <use xlink:href="#DejaVuSans-61" x="595.019531"/>
      <use xlink:href="#DejaVuSans-69" x="656.298828"/>
      <use xlink:href="#DejaVuSans-6e" x="684.082031"/>
      <use xlink:href="#DejaVuSans-74" x="747.460938"/>
      <use xlink:href="#DejaVuSans-79" x="786.669922"/>
      <use xlink:href="#DejaVuSans-20" x="845.849609"/>
      <use xlink:href="#DejaVuSans-28" x="877.636719"/>
      <use xlink:href="#DejaVuSans-3c3" x="916.650391"/>
      <use xlink:href="#DejaVuSans-2f" x="980.029297"/>
      <use xlink:href="#DejaVuSans-3bc" x="1013.720703"/>
      <use xlink:href="#DejaVuSans-3d" x="1077.34375"/>
      <use xlink:href="#DejaVuSans-30" x="1161.132812"/>
      <use xlink:href="#DejaVuSans-2e" x="1224.755859"/>
      <use xlink:href="#DejaVuSans-34" x="1256.542969"/>
      <use xlink:href="#DejaVuSans-32" x="1320.166016"/>
      <use xlink:href="#DejaVuSans-29" x="1383.789062"/>
     </g>
    </g>
    <g id="line2d_43">
     <path d="M 80.807813 29.42125 
L 89.607813 29.42125 
L 98.407813 29.42125 
" style="fill: none; stroke: #ff7f0e; stroke-width: 1.6; stroke-linecap: square"/>
     <g>
      <use xlink:href="#mdecf1785ee" x="89.607813" y="29.42125" style="fill: #ff7f0e; stroke: #ff7f0e"/>
     </g>
    </g>
    <g id="text_13">
     <!-- Low Uncertainty (σ/μ=0.31) -->
     <g transform="translate(104.807813 32.22125)scale(0.08 -0.08)">
      <defs>
       <path id="DejaVuSans-4c" d="M 628 4666 
L 1259 4666 
L 1259 531 
L 3531 531 
L 3531 0 
L 628 0 
L 628 4666 
z
" transform="scale(0.015625)"/>
       <path id="DejaVuSans-77" d="M 269 3500 
L 844 3500 
L 1563 769 
L 2278 3500 
L 2956 3500 
L 3675 769 
L 4391 3500 
L 4966 3500 
L 4050 0 
L 3372 0 
L 2619 2869 
L 1863 0 
L 1184 0 
L 269 3500 
z
" transform="scale(0.015625)"/>
       <path id="DejaVuSans-33" d="M 2597 2516 
Q 3050 2419 3304 2112 
Q 3559 1806 3559 1356 
Q 3559 666 3084 287 
Q 2609 -91 1734 -91 
Q 1441 -91 1130 -33 
Q 819 25 488 141 
L 488 750 
Q 750 597 1062 519 
Q 1375 441 1716 441 
Q 2309 441 2620 675 
Q 2931 909 2931 1356 
Q 2931 1769 2642 2001 
Q 2353 2234 1838 2234 
L 1294 2234 
L 1294 2753 
L 1863 2753 
Q 2328 2753 2575 2939 
Q 2822 3125 2822 3475 
Q 2822 3834 2567 4026 
Q 2313 4219 1838 4219 
Q 1578 4219 1281 4162 
Q 984 4106 628 3988 
L 628 4550 
Q 988 4650 1302 4700 
Q 1616 4750 1894 4750 
Q 2613 4750 3031 4423 
Q 3450 4097 3450 3541 
Q 3450 3153 3228 2886 
Q 3006 2619 2597 2516 
z
" transform="scale(0.015625)"/>
      </defs>
      <use xlink:href="#DejaVuSans-4c"/>
      <use xlink:href="#DejaVuSans-6f" x="53.962891"/>
      <use xlink:href="#DejaVuSans-77" x="115.144531"/>
      <use xlink:href="#DejaVuSans-20" x="196.931641"/>
      <use xlink:href="#DejaVuSans-55" x="228.71875"/>
      <use xlink:href="#DejaVuSans-6e" x="301.912109"/>
      <use xlink:href="#DejaVuSans-63" x="365.291016"/>
      <use xlink:href="#DejaVuSans-65" x="420.271484"/>
      <use xlink:href="#DejaVuSans-72" x="481.794922"/>
      <use xlink:href="#DejaVuSans-74" x="522.908203"/>
      <use xlink:href="#DejaVuSans-61" x="562.117188"/>
      <use xlink:href="#DejaVuSans-69" x="623.396484"/>
      <use xlink:href="#DejaVuSans-6e" x="651.179688"/>
      <use xlink:href="#DejaVuSans-74" x="714.558594"/>
      <use xlink:href="#DejaVuSans-79" x="753.767578"/>
      <use xlink:href="#DejaVuSans-20" x="812.947266"/>
      <use xlink:href="#DejaVuSans-28" x="844.734375"/>
      <use xlink:href="#DejaVuSans-3c3" x="883.748047"/>
      <use xlink:href="#DejaVuSans-2f" x="947.126953"/>
      <use xlink:href="#DejaVuSans-3bc" x="980.818359"/>
      <use xlink:href="#DejaVuSans-3d" x="1044.441406"/>
      <use xlink:href="#DejaVuSans-30" x="1128.230469"/>
      <use xlink:href="#DejaVuSans-2e" x="1191.853516"/>
      <use xlink:href="#DejaVuSans-33" x="1223.640625"/>
      <use xlink:href="#DejaVuSans-31" x="1287.263672"/>
      <use xlink:href="#DejaVuSans-29" x="1350.886719"/>
     </g>
    </g>
    <g id="line2d_44">
     <path d="M 80.807813 41.16375 
L 89.607813 41.16375 
L 98.407813 41.16375 
" style="fill: none; stroke: #2ca02c; stroke-width: 1.6; stroke-linecap: square"/>
     <g>
      <use xlink:href="#m796b62f01f" x="89.607813" y="41.16375" style="fill: #2ca02c; stroke: #2ca02c"/>
     </g>
    </g>
    <g id="text_14">
     <!-- Medium Uncertainty (σ/μ=0.33) -->
     <g transform="translate(104.807813 43.96375)scale(0.08 -0.08)">
      <use xlink:href="#DejaVuSans-4d"/>
      <use xlink:href="#DejaVuSans-65" x="86.279297"/>
      <use xlink:href="#DejaVuSans-64" x="147.802734"/>
      <use xlink:href="#DejaVuSans-69" x="211.279297"/>
      <use xlink:href="#DejaVuSans-75" x="239.0625"/>
      <use xlink:href="#DejaVuSans-6d" x="302.441406"/>
      <use xlink:href="#DejaVuSans-20" x="399.853516"/>
      <use xlink:href="#DejaVuSans-55" x="431.640625"/>
      <use xlink:href="#DejaVuSans-6e" x="504.833984"/>
      <use xlink:href="#DejaVuSans-63" x="568.212891"/>
      <use xlink:href="#DejaVuSans-65" x="623.193359"/>
      <use xlink:href="#DejaVuSans-72" x="684.716797"/>
      <use xlink:href="#DejaVuSans-74" x="725.830078"/>
      <use xlink:href="#DejaVuSans-61" x="765.039062"/>
      <use xlink:href="#DejaVuSans-69" x="826.318359"/>
      <use xlink:href="#DejaVuSans-6e" x="854.101562"/>
      <use xlink:href="#DejaVuSans-74" x="917.480469"/>
      <use xlink:href="#DejaVuSans-79" x="956.689453"/>
      <use xlink:href="#DejaVuSans-20" x="1015.869141"/>
      <use xlink:href="#DejaVuSans-28" x="1047.65625"/>
      <use xlink:href="#DejaVuSans-3c3" x="1086.669922"/>
      <use xlink:href="#DejaVuSans-2f" x="1150.048828"/>
      <use xlink:href="#DejaVuSans-3bc" x="1183.740234"/>
      <use xlink:href="#DejaVuSans-3d" x="1247.363281"/>
      <use xlink:href="#DejaVuSans-30" x="1331.152344"/>
      <use xlink:href="#DejaVuSans-2e" x="1394.775391"/>
      <use xlink:href="#DejaVuSans-33" x="1426.5625"/>
      <use xlink:href="#DejaVuSans-33" x="1490.185547"/>
      <use xlink:href="#DejaVuSans-29" x="1553.808594"/>
     </g>
    </g>
   </g>
  </g>
 </g>
 <defs>
  <clipPath id="p201a07aa1d">
   <rect x="44.722813" y="7.2" width="194.71" height="121.84"/>
  </clipPath>
 </defs>
</svg>
